<svg xmlns="http://www.w3.org/2000/svg" viewBox="0 0 224 224" width="26" height="26"><g fill="none" stroke-miterlimit="10" font-family="none" font-weight="none" font-size="none" text-anchor="none" style="mix-blend-mode:normal"><path d="M0 224V0h224v224z"/><path d="M182 0H42C18.812 0 0 18.813 0 42v140c0 23.188 18.813 42 42 42h140c23.188 0 42-18.813 42-42V42c0-23.188-18.813-42-42-42zM69.26 190.144H34.462L34.26 85.952h34.798zM50.986 72.322h-.202c-11.375 0-18.712-7.841-18.712-17.6 0-9.996 7.572-17.568 19.15-17.568 11.576 0 18.677 7.572 18.913 17.567 0 9.76-7.37 17.601-19.15 17.601zm138.923 117.822h-35.101v-56.606c0-13.697-3.635-23.019-15.885-23.019-9.356 0-14.404 6.294-16.827 12.385-.909 2.187-1.144 5.183-1.144 8.245v58.995h-35.27l-.201-104.192h35.269l.202 14.707c4.51-6.967 12.014-16.827 29.986-16.827 22.278 0 38.937 14.538 38.937 45.803v60.51z" fill="#FFF"/></g></svg>