<svg height="600" width="960" xmlns="http://www.w3.org/2000/svg"><text fill="#393b79" font-family="Impact" font-size="100" text-anchor="middle" transform="matrix(.90564752563 -.522875845 .522875845 .90564752563 284.44443397 325.09804056)">javascript</text><text fill="#6b6ecf" font-family="Impact" font-size="92" text-anchor="middle" transform="matrix(.90564752563 -.522875845 .522875845 .90564752563 339.86927354 190.19607255)">ruby</text><text fill="#9c9ede" font-family="Impact" font-size="83" text-anchor="middle" transform="matrix(1.04575169 0 0 1.04575169 595.0326859 460.00000857)">rails</text><text fill="#637939" font-family="Impact" font-size="63" text-anchor="middle" transform="matrix(.522875845 -.90564752563 .90564752563 .522875845 601.30719604 259.21568409)">elixir</text><text fill="#8ca252" font-family="Impact" font-size="63" text-anchor="middle" transform="matrix(.90564752563 .522875845 -.522875845 .90564752563 481.04575169 134.77123298)">phoenix</text><text fill="#b5cf6b" font-family="Impact" font-size="74" text-anchor="middle" transform="matrix(.90564752563 .522875845 -.522875845 .90564752563 499.86928211 354.37908788)">react</text><text fill="#cedb9c" font-family="Impact" font-size="46" text-anchor="middle" transform="matrix(.90564752563 -.522875845 .522875845 .90564752563 323.1372465 422.35294773)">angular</text><text fill="#8c6d31" font-family="Impact" font-size="86" text-anchor="middle" transform="matrix(.522875845 .90564752563 -.90564752563 .522875845 633.72549843 176.60130058)">html</text><text fill="#bd9e39" font-family="Impact" font-size="86" text-anchor="middle" transform="matrix(1.04575169 0 0 1.04575169 699.6078549 395.16340379)">css</text><text fill="#5254a3" transform="matrix(.522875845 .90564752563 -.90564752563 .522875845 389.01960297 209.01960297)"/><g font-family="Impact" text-anchor="middle"><text fill="#e7ba52" font-size="63" transform="matrix(.522875845 -.90564752563 .90564752563 .522875845 209.15031229 212.15685804)">graphql</text><text fill="#e7cb94" font-size="33" transform="matrix(.522875845 -.90564752563 .90564752563 .522875845 152.67972103 193.33332762)">programming</text><text fill="#843c39" font-size="10" transform="matrix(.522875845 .90564752563 -.90564752563 .522875845 635.81700181 202.74509283)">aws</text><text fill="#ad494a" font-size="10" transform="matrix(.522875845 .90564752563 -.90564752563 .522875845 360.78430734 269.67320099)">s3</text><text fill="#d6616b" font-size="10" transform="matrix(.522875845 .90564752563 -.90564752563 .522875845 455.94771113 187.05881748)">sidekiq</text><text fill="#e7969c" font-size="10" transform="matrix(.522875845 -.90564752563 .90564752563 .522875845 492.54902028 168.23528706)">webpack</text><text fill="#7b4173" font-size="10" transform="matrix(.522875845 .90564752563 -.90564752563 .522875845 236.33985623 395.16340379)">honeybadger</text><text fill="#a55194" font-size="10" transform="matrix(.90564752563 .522875845 -.522875845 .90564752563 478.95424831 251.89542226)">sentry</text><text fill="#bd9e39" font-size="10" transform="matrix(.90564752563 .522875845 -.522875845 .90564752563 494.64052366 415.0326859)">github</text><text fill="#ce6dbd" font-size="10" transform="matrix(.522875845 -.90564752563 .90564752563 .522875845 523.92157098 266.53594592)">jira</text><text fill="#de9ed6" font-size="10" transform="matrix(.522875845 -.90564752563 .90564752563 .522875845 200.78429877 392.02614872)">mailchimp</text><text fill="#393b79" font-size="10" transform="matrix(.90564752563 .522875845 -.522875845 .90564752563 534.37908788 393.07190041)">esnext</text><text fill="#5254a3" font-size="10" transform="matrix(.90564752563 .522875845 -.522875845 .90564752563 683.92157955 448.49673998)">ai</text><text fill="#6b6ecf" font-size="10" transform="matrix(.522875845 -.90564752563 .90564752563 .522875845 526.01307436 296.86274493)">sql</text><text fill="#9c9ede" font-size="10" transform="matrix(.522875845 -.90564752563 .90564752563 .522875845 343.00652861 315.68627535)">trailblazer</text><text fill="#637939" font-size="10" transform="matrix(.522875845 .90564752563 -.90564752563 .522875845 371.24182424 306.27451014)">functional</text><text fill="#8ca252" font-size="10" transform="matrix(.90564752563 -.522875845 .522875845 .90564752563 605.4902028 279.0849662)">tdd</text><text fill="#b5cf6b" font-size="10" transform="matrix(.90564752563 .522875845 -.522875845 .90564752563 612.81046463 370.06536323)">railway</text><text fill="#cedb9c" font-size="10" transform="matrix(.522875845 -.90564752563 .90564752563 .522875845 540.65359802 197.51633438)">oriented</text><text fill="#8c6d31" font-size="10" transform="matrix(.522875845 .90564752563 -.90564752563 .522875845 670.32680758 329.28104732)">rspec</text><text fill="#bd9e39" font-size="10" transform="matrix(.522875845 .90564752563 -.90564752563 .522875845 238.43135961 213.20260973)">jest</text><text fill="#e7ba52" font-size="10" transform="matrix(.90564752563 .522875845 -.522875845 .90564752563 704.83661335 151.50326002)">jasmine</text><text fill="#e7cb94" font-size="10" transform="matrix(.522875845 -.90564752563 .90564752563 .522875845 721.56864039 310.4575169)">vim</text><text fill="#843c39" font-size="10" transform="matrix(.522875845 -.90564752563 .90564752563 .522875845 494.64052366 372.15686661)">styled</text><text fill="#ad494a" font-size="10" transform="matrix(.522875845 .90564752563 -.90564752563 .522875845 391.11110635 374.24836999)">components</text><text fill="#d6616b" font-size="10" transform="matrix(.522875845 -.90564752563 .90564752563 .522875845 370.19607255 346.01307436)">redux</text><text fill="#e7969c" font-size="10" transform="matrix(.90564752563 .522875845 -.522875845 .90564752563 314.77123298 456.8627535)">storybook</text><text fill="#7b4173" font-size="10" transform="matrix(.522875845 -.90564752563 .90564752563 .522875845 687.05883462 280.13071789)">design</text><text fill="#a55194" font-size="10" transform="matrix(1.04575169 0 0 1.04575169 733.07190898 178.69280396)">algorithms</text><text fill="#ce6dbd" font-size="10" transform="matrix(1.04575169 0 0 1.04575169 494.64052366 205.8823479)">research</text><text fill="#de9ed6" font-size="10" transform="matrix(.522875845 .90564752563 -.90564752563 .522875845 610.71896125 341.8300676)">angularjs</text><text fill="#393b79" font-size="10" transform="matrix(.90564752563 .522875845 -.522875845 .90564752563 470.58823479 396.20915548)">vuejs</text><text fill="#5254a3" font-size="10" transform="matrix(.90564752563 -.522875845 .522875845 .90564752563 283.39868228 141.04574312)">emberjs</text><text fill="#a55194" font-size="10" transform="matrix(.90564752563 -.522875845 .522875845 .90564752563 717.38563363 272.81045606)">animations</text><text fill="#6b6ecf" font-size="10" transform="matrix(1.04575169 0 0 1.04575169 347.18953537 448.49673998)">graphs</text><text fill="#9c9ede" font-size="10" transform="matrix(.90564752563 -.522875845 .522875845 .90564752563 302.2222127 227.84313339)">diagrams</text><text fill="#637939" font-size="10" transform="matrix(.522875845 .90564752563 -.90564752563 .522875845 406.7973817 425.4902028)">interactors</text><text fill="#8ca252" font-size="10" transform="matrix(.90564752563 .522875845 -.522875845 .90564752563 527.05882605 180.78430734)">IIFE</text><text fill="#b5cf6b" font-size="10" transform="matrix(.522875845 -.90564752563 .90564752563 .522875845 642.09151195 237.2548986)">promises</text><text fill="#cedb9c" font-size="10" transform="matrix(.522875845 .90564752563 -.90564752563 .522875845 688.10458631 418.16994097)">asyncawait</text><text fill="#8c6d31" font-size="10" transform="matrix(.522875845 .90564752563 -.90564752563 .522875845 614.90196801 178.69280396)">nodejs</text><text fill="#bd9e39" font-size="10" transform="matrix(.522875845 .90564752563 -.90564752563 .522875845 462.22222127 361.69934971)">expressjs</text><text fill="#e7ba52" font-size="10" transform="matrix(1.04575169 0 0 1.04575169 406.7973817 306.27451014)">mongodb</text><text fill="#e7cb94" font-size="10" transform="matrix(.522875845 -.90564752563 .90564752563 .522875845 724.70589546 239.34640198)">vscode</text><text fill="#843c39" font-size="10" transform="matrix(.90564752563 -.522875845 .522875845 .90564752563 533.33333619 224.70587832)">mongoose</text><text fill="#ad494a" font-size="10" transform="matrix(.522875845 -.90564752563 .90564752563 .522875845 461.17646958 150.45750833)">heroku</text><text fill="#d6616b" font-size="10" transform="matrix(1.04575169 0 0 1.04575169 658.82353899 259.21568409)">jenkins</text><text fill="#e7969c" font-size="10" transform="matrix(.522875845 .90564752563 -.90564752563 .522875845 253.07188327 239.34640198)">trello</text><text fill="#7b4173" font-size="10" transform="matrix(.522875845 .90564752563 -.90564752563 .522875845 236.33985623 242.48365705)">processes</text><text fill="#a55194" font-size="10" transform="matrix(.522875845 .90564752563 -.90564752563 .522875845 626.4052366 341.8300676)">ab</text><text fill="#ce6dbd" font-size="10" transform="matrix(1.04575169 0 0 1.04575169 427.7124155 286.40522803)">tests</text><text fill="#de9ed6" font-size="10" transform="matrix(1.04575169 0 0 1.04575169 718.43138532 329.28104732)">performance</text><text fill="#393b79" font-size="10" transform="matrix(.90564752563 -.522875845 .522875845 .90564752563 270.849662 395.16340379)">ux</text><text fill="#5254a3" font-size="10" transform="matrix(.90564752563 -.522875845 .522875845 .90564752563 328.36600495 212.15685804)">ui</text></g></svg>